<svg xmlns="http://www.w3.org/2000/svg" data-name="Layer 1" viewBox="0 0 100 125" x="0px" y="0px"><defs><style>.cls-1{fill-rule:evenodd;}</style></defs><path class="cls-1" d="M84.407,40.242H51.162V51.079H84.407V40.242ZM30.01,60.869a12.137,12.137,0,0,0,5.689-9.2H25.4l4.606,9.2ZM22.524,38.49V50.562a1.1,1.1,0,0,0,.166.583l5.358,10.708A12.124,12.124,0,1,1,22.524,38.49Zm9.674,3.5a12.082,12.082,0,0,0-7.47-3.5V49.46H35.7a12.087,12.087,0,0,0-3.5-7.469Zm-8.572-5.755a14.326,14.326,0,1,1-10.131,4.2,14.284,14.284,0,0,1,10.131-4.2Zm61.708-17H56.911a2.3,2.3,0,0,0,0,4.592H85.334a2.3,2.3,0,0,0,0-4.592Zm-28.423-2.2H85.334a4.5,4.5,0,0,1,0,9H56.911a4.5,4.5,0,0,1,0-9ZM40.718,19.9a2.3,2.3,0,1,0,.672,1.624,2.291,2.291,0,0,0-.672-1.624Zm-1.624-2.876a4.5,4.5,0,1,1-3.182,1.318,4.486,4.486,0,0,1,3.182-1.318ZM28.5,19.9a2.3,2.3,0,1,0,.672,1.624A2.293,2.293,0,0,0,28.5,19.9ZM26.88,17.027A4.5,4.5,0,1,1,23.7,18.345a4.486,4.486,0,0,1,3.182-1.318ZM16.289,19.9a2.3,2.3,0,1,0,.673,1.624,2.288,2.288,0,0,0-.673-1.624Zm-1.623-2.876a4.5,4.5,0,1,1-3.182,1.318,4.49,4.49,0,0,1,3.182-1.318ZM6.1,32.918H93.9V87.66H6.1V32.918Zm0-20.578H93.9V30.714H6.1V12.34Zm16.85,68.248H35.429a1.1,1.1,0,1,0,0-2.2H22.952a1.1,1.1,0,1,0,0,2.2Zm-11.13,0h5.29a1.1,1.1,0,0,0,0-2.2h-5.29a1.1,1.1,0,1,0,0,2.2ZM24.3,73.2H11.822a1.1,1.1,0,1,0,0,2.2H24.3a1.1,1.1,0,0,0,0-2.2Zm11.13,0H30.14a1.1,1.1,0,1,0,0,2.2h5.289a1.1,1.1,0,1,0,0-2.2ZM85.607,58.139a2,2,0,1,0,.586,1.413,1.989,1.989,0,0,0-.586-1.413ZM73.879,70.1a2,2,0,1,0,.586,1.413,1.989,1.989,0,0,0-.586-1.413ZM62.151,63.157a2,2,0,1,0,.586,1.414,1.993,1.993,0,0,0-.586-1.414ZM50.423,72.651a2,2,0,1,0,.586,1.413,1.99,1.99,0,0,0-.586-1.413Zm-1.413-2.79a4.2,4.2,0,1,0,3.845,2.5l5.421-4.388a4.2,4.2,0,0,0,5.393-.4l4.745,2.807a4.2,4.2,0,1,0,7.678-1.008l6.046-6.163a4.2,4.2,0,1,0-1.569-1.539l-6.046,6.163a4.2,4.2,0,0,0-4.988.654L64.79,65.689a4.2,4.2,0,1,0-7.9.581l-5.421,4.388a4.185,4.185,0,0,0-2.462-.8Zm1.05-31.823H85.509a1.1,1.1,0,0,1,1.1,1.1V52.181a1.1,1.1,0,0,1-1.1,1.1H50.06a1.1,1.1,0,0,1-1.1-1.1V39.14A1.1,1.1,0,0,1,50.06,38.038Z"/><text x="0" y="115" fill="#000000" font-size="5px" font-weight="bold" font-family="'Helvetica Neue', Helvetica, Arial-Unicode, Arial, Sans-serif">Created by loviana</text><text x="0" y="120" fill="#000000" font-size="5px" font-weight="bold" font-family="'Helvetica Neue', Helvetica, Arial-Unicode, Arial, Sans-serif">from the Noun Project</text></svg>