<svg xmlns="http://www.w3.org/2000/svg" data-name="Layer 1" viewBox="0 0 100 125" x="0px" y="0px"><path d="M93.924,11.089H6.076A1.075,1.075,0,0,0,5,12.164V87.836a1.075,1.075,0,0,0,1.076,1.075H93.924A1.075,1.075,0,0,0,95,87.836V12.164A1.075,1.075,0,0,0,93.924,11.089ZM92.849,13.24V31.175H7.151V13.24ZM7.151,86.76V33.327h85.7V86.76Zm8.36-60.16a4.393,4.393,0,1,0-4.393-4.392A4.4,4.4,0,0,0,15.511,26.6Zm0-6.633a2.241,2.241,0,1,1-2.242,2.241A2.244,2.244,0,0,1,15.511,19.967ZM27.433,26.6a4.393,4.393,0,1,0-4.393-4.392A4.4,4.4,0,0,0,27.433,26.6Zm0-6.633a2.241,2.241,0,1,1-2.241,2.241A2.243,2.243,0,0,1,27.433,19.967ZM39.355,26.6a4.393,4.393,0,1,0-4.392-4.392A4.4,4.4,0,0,0,39.355,26.6Zm0-6.633a2.241,2.241,0,1,1-2.241,2.241A2.243,2.243,0,0,1,39.355,19.967ZM56.745,26.6H84.49a4.393,4.393,0,0,0,0-8.785H56.745a4.393,4.393,0,0,0,0,8.785Zm0-6.633H84.49a2.241,2.241,0,0,1,0,4.482H56.745a2.241,2.241,0,1,1,0-4.482ZM36.854,73.725A1.076,1.076,0,0,1,35.778,74.8H30.614a1.076,1.076,0,0,1,0-2.151h5.164A1.075,1.075,0,0,1,36.854,73.725Zm-25.195,0a1.075,1.075,0,0,1,1.076-1.075H24.913a1.076,1.076,0,1,1,0,2.151H12.735A1.076,1.076,0,0,1,11.659,73.725Zm7.315,5.056A1.076,1.076,0,0,1,17.9,79.857H12.735a1.076,1.076,0,0,1,0-2.152H17.9A1.076,1.076,0,0,1,18.974,78.781Zm17.88,0a1.076,1.076,0,0,1-1.076,1.076H23.6a1.076,1.076,0,0,1,0-2.152H35.778A1.076,1.076,0,0,1,36.854,78.781ZM83.377,55.222A4.1,4.1,0,0,0,79.838,61.4l-5.906,6.021a4.092,4.092,0,0,0-4.86.638l-4.636-2.742a4.1,4.1,0,1,0-8.057-1.09,4.075,4.075,0,0,0,.35,1.654l-5.3,4.288a4.1,4.1,0,1,0,1.355,1.671l5.3-4.288a4.09,4.09,0,0,0,5.254-.385l4.637,2.743a4.1,4.1,0,1,0,7.493-.982L81.374,62.9a4.1,4.1,0,1,0,2-7.68ZM49.034,75.439a1.951,1.951,0,1,1,1.951-1.95A1.953,1.953,0,0,1,49.034,75.439Zm11.447-9.266a1.951,1.951,0,1,1,1.951-1.951A1.953,1.953,0,0,1,60.481,66.173Zm11.448,6.772a1.951,1.951,0,1,1,1.951-1.951A1.953,1.953,0,0,1,71.929,72.945Zm11.448-11.67a1.951,1.951,0,1,1,1.95-1.951A1.953,1.953,0,0,1,83.377,61.275ZM24.256,36.565A13.984,13.984,0,1,0,38.24,50.549,14,14,0,0,0,24.256,36.565ZM36.038,49.473H25.332V38.767A11.852,11.852,0,0,1,36.038,49.473ZM12.424,50.549A11.847,11.847,0,0,1,23.181,38.767V50.574q0,.035,0,.069l.005.042.009.061c0,.017.007.033.011.05s.008.033.013.05.012.039.019.058l.015.04a.6.6,0,0,0,.027.063l.01.023,5.272,10.536A11.825,11.825,0,0,1,12.424,50.549ZM30.489,60.6,26,51.625H36.038A11.842,11.842,0,0,1,30.489,60.6Zm19.569-7.4h34.6a1.075,1.075,0,0,0,1.075-1.076V39.4a1.075,1.075,0,0,0-1.075-1.076h-34.6A1.076,1.076,0,0,0,48.982,39.4V52.129A1.076,1.076,0,0,0,50.058,53.205Zm1.076-12.729h32.45V51.053H51.134Z"/><text x="0" y="115" fill="#000000" font-size="5px" font-weight="bold" font-family="'Helvetica Neue', Helvetica, Arial-Unicode, Arial, Sans-serif">Created by loviana</text><text x="0" y="120" fill="#000000" font-size="5px" font-weight="bold" font-family="'Helvetica Neue', Helvetica, Arial-Unicode, Arial, Sans-serif">from the Noun Project</text></svg>